<svg xmlns="http://www.w3.org/2000/svg" width="48" height="48" viewBox="0 0 48 48" fill="none">
  <!-- Handle Main Body (Orange) -->
  <path d="M14 10 C 14 4, 34 4, 34 10 C 34 18, 30 24, 28 26 L 20 26 C 18 24, 14 18, 14 10 Z" fill="#FF6600" stroke="#CC5200" stroke-width="1"/>
  
  <!-- Handle Grip (Dark Grey/Black) -->
  <path d="M16 10 C 16 6, 32 6, 32 10 C 32 15, 31 16, 31 16 L 17 16 C 17 16, 16 15, 16 10 Z" fill="#333333" opacity="0.9"/>
  <path d="M20 26 L 28 26 L 28 28 C 28 30, 20 30, 20 28 Z" fill="#333333"/>

  <!-- Shaft (Chrome/Silver) -->
  <rect x="22" y="28" width="4" height="14" fill="#D1D5DB" stroke="#9CA3AF" stroke-width="0.5"/>
  
  <!-- Tip (Dark Grey) -->
  <path d="M22 42 L 26 42 L 24 47 Z" fill="#1F2937"/>
  
  <!-- Shine/Highlight -->
  <path d="M18 10 Q 18 6 22 6 L 22 14 Q 18 14 18 10" fill="white" opacity="0.2"/>
</svg>
